<?xml version="1.0" standalone="no"?>
<!DOCTYPE svg PUBLIC "-//W3C//DTD SVG 20010904//EN"
 "http://www.w3.org/TR/2001/REC-SVG-20010904/DTD/svg10.dtd">
<svg version="1.0" xmlns="http://www.w3.org/2000/svg"
 width="400.000000pt" height="400.000000pt" viewBox="0 0 400.000000 400.000000"
 preserveAspectRatio="xMidYMid meet">

<g transform="translate(0.000000,400.000000) scale(0.100000,-0.100000)"
fill="#000000" stroke="none">
<path d="M1830 3889 c-288 -24 -633 -144 -870 -305 -285 -192 -528 -470 -666
-759 -132 -279 -186 -516 -187 -820 0 -311 56 -556 188 -830 241 -500 709
-881 1245 -1014 397 -98 794 -70 1173 84 351 141 668 405 878 729 354 546 401
1233 125 1832 -139 299 -395 593 -686 784 -260 171 -566 274 -889 299 -147 12
-170 12 -311 0z m540 -710 c77 -18 172 -71 231 -130 262 -262 119 -675 -261
-755 -123 -26 -262 -1 -371 66 l-47 29 -58 -24 c-33 -13 -82 -27 -111 -31
l-52 -6 -5 -42 c-3 -22 -7 -104 -10 -181 -3 -77 -9 -168 -12 -203 l-7 -63 53
35 c74 49 159 70 262 64 120 -6 192 -49 274 -162 l20 -28 58 60 c125 131 311
188 484 147 352 -83 494 -471 265 -725 -55 -61 -106 -95 -181 -121 -52 -18
-96 -19 -881 -19 l-826 0 -97 78 c-96 77 -96 77 -105 132 -13 89 -8 278 11
373 39 203 143 441 286 655 l82 122 -33 37 c-17 20 -46 67 -63 103 -26 56 -30
76 -30 150 0 74 4 93 31 152 100 214 356 312 579 222 l63 -25 56 32 c88 49
158 68 260 68 50 0 110 -4 135 -10z"/>
<path d="M2254 3099 c-65 -8 -164 -61 -209 -110 -19 -21 -47 -62 -62 -91 -25
-48 -28 -62 -28 -158 0 -96 2 -110 29 -163 37 -71 109 -140 184 -174 73 -34
191 -38 267 -9 260 98 326 423 124 610 -86 80 -185 111 -305 95z m115 -296
c12 -10 24 -34 27 -54 7 -44 -25 -86 -72 -95 -45 -9 -94 35 -94 84 0 71 84
110 139 65z"/>
<path d="M1677 3059 c-84 -20 -171 -90 -215 -174 -23 -43 -27 -62 -27 -140 0
-67 5 -101 19 -132 l18 -41 68 77 c37 42 104 112 150 155 45 44 92 101 105
126 13 26 36 61 51 79 14 18 24 34 21 37 -21 21 -126 28 -190 13z"/>
<path d="M1761 2474 c-22 -26 -41 -51 -41 -55 0 -10 84 -10 120 0 32 9 32 19
-6 64 l-31 38 -42 -47z"/>
<path d="M1320 2053 c-106 -238 -147 -383 -130 -458 17 -78 102 -125 189 -107
l35 8 -42 13 c-59 20 -119 74 -133 121 -9 30 -9 53 0 102 14 70 68 243 112
357 16 41 27 76 25 78 -2 2 -27 -49 -56 -114z"/>
<path d="M1538 1779 l-26 -91 36 33 c21 19 42 38 47 43 6 5 0 5 -13 1 -23 -7
-24 -6 -17 49 4 31 6 56 4 56 -2 0 -16 -41 -31 -91z"/>
<path d="M2697 1823 c-15 -20 -25 -39 -22 -41 2 -2 30 2 62 9 48 10 54 13 33
19 -16 3 -26 14 -28 28 -5 31 -15 28 -45 -15z"/>
<path d="M1690 1464 c0 -8 118 -63 158 -73 106 -29 245 -5 317 53 l30 24 -60
-21 c-80 -27 -254 -27 -367 1 -43 11 -78 18 -78 16z"/>
</g>
</svg>
